<svg xmlns="http://www.w3.org/2000/svg" width="84.531" height="84.53" viewBox="0 0 84.531 84.53"><defs><style>.a{fill:#2ba9f5;}.b{fill:#2699df;}.c{fill:#b60b05;}</style></defs><circle class="a" cx="42.265" cy="42.265" r="42.265" transform="translate(0 0)"/><path class="b" d="M277.625,114.609l-37.379,38.7.066,4.16h1.717l40.482-32.624A42.978,42.978,0,0,0,277.625,114.609Z" transform="translate(-199.962 -95.391)"/><path class="c" d="M162.33,63.179l-7.463-7.4a2.672,2.672,0,0,0-3.7,0l-31.9,32.954-13.8-13.6a2.672,2.672,0,0,0-3.7,0l-6.6,6.538a2.591,2.591,0,0,0,0,3.632l22.057,21.859a3.632,3.632,0,0,0,4.359,0L162.33,66.878A2.672,2.672,0,0,0,162.33,63.179Z" transform="translate(-78.591 -45.811)"/><path class="c" d="M121.911,142.319l40.747-40.284a2.591,2.591,0,0,0,0-3.632l-1.189-1.123-41.8,41.077-23.114-22.52-.991.991a2.591,2.591,0,0,0,0,3.632l22.057,21.859a2.681,2.681,0,0,0,2.179.726A2.617,2.617,0,0,0,121.911,142.319Z" transform="translate(-78.919 -80.968)"/></svg>