<svg xmlns="http://www.w3.org/2000/svg" width="19.175" height="21.635" viewBox="0 0 19.175 21.635"><defs><style>.a{fill:#2ba9f5;}.b{fill:#b60b05;}</style></defs><g transform="translate(0)"><path class="a" d="M61.782,19.409l-1.646-2.744a8.151,8.151,0,0,1-1.162-4.194v-2.4A6.72,6.72,0,0,0,54.18,3.639V1.918a1.918,1.918,0,1,0-3.835,0V3.639a6.72,6.72,0,0,0-4.794,6.429v2.4a8.156,8.156,0,0,1-1.161,4.193l-1.646,2.744a.48.48,0,0,0,.41.727H61.371a.479.479,0,0,0,.411-.726Z" transform="translate(-42.675)"/></g><g transform="translate(6.568 19.717)"><g transform="translate(0)"><path class="b" d="M188.815,469.333a3.336,3.336,0,0,0,6.038,0Z" transform="translate(-188.815 -469.333)"/></g></g></svg>